<?xml version="1.0" encoding="UTF-8" standalone="no"?>
<svg
   xmlns:dc="http://purl.org/dc/elements/1.1/"
   xmlns:cc="http://creativecommons.org/ns#"
   xmlns:rdf="http://www.w3.org/1999/02/22-rdf-syntax-ns#"
   xmlns:svg="http://www.w3.org/2000/svg"
   xmlns="http://www.w3.org/2000/svg"
   xmlns:sodipodi="http://sodipodi.sourceforge.net/DTD/sodipodi-0.dtd"
   xmlns:inkscape="http://www.inkscape.org/namespaces/inkscape"
   version="1.1"
   x="0px"
   y="0px"
   width="86px"
   height="86px"
   viewBox="0 0 86 86"
   enable-background="new 0 0 86 86"
   xml:space="preserve"
   id="svg43"
   sodipodi:docname="harbour-twemoji.svg"
   inkscape:version="1.0.2 (e86c870879, 2021-01-15)"><metadata
   id="metadata49"><rdf:RDF><cc:Work
       rdf:about=""><dc:format>image/svg+xml</dc:format><dc:type
         rdf:resource="http://purl.org/dc/dcmitype/StillImage" /></cc:Work></rdf:RDF></metadata><defs
   id="defs47">
	
	
</defs><sodipodi:namedview
   pagecolor="#ffffff"
   bordercolor="#666666"
   borderopacity="1"
   objecttolerance="10"
   gridtolerance="10"
   guidetolerance="10"
   inkscape:pageopacity="0"
   inkscape:pageshadow="2"
   inkscape:window-width="1920"
   inkscape:window-height="1005"
   id="namedview45"
   showgrid="false"
   inkscape:zoom="0.86743913"
   inkscape:cx="44.195821"
   inkscape:cy="159.24313"
   inkscape:window-x="0"
   inkscape:window-y="0"
   inkscape:window-maximized="1"
   inkscape:current-layer="svg43" />
<g
   id="Layer_2"
   display="none">
</g>
<g
   id="g10">
		
			<radialGradient
   id="SVGID_1_"
   cx="40.4091"
   cy="43.466"
   r="42.6105"
   gradientTransform="matrix(1.0021,0,0,1.0021,2.506,-0.5573)"
   gradientUnits="userSpaceOnUse">
			<stop
   offset="0"
   style="stop-color:#ff6d00;stop-opacity:1"
   id="stop3" />
			<stop
   offset="1"
   style="stop-color:#ffab40;stop-opacity:1"
   id="stop5" />
		</radialGradient>
		<circle
   fill="url(#SVGID_1_)"
   cx="43"
   cy="43"
   r="42.700001"
   id="circle8"
   style="fill:url(#SVGID_1_)" />
	</g>
<g
   id="g845"
   transform="matrix(1.7777778,0,0,1.7777778,11,11)"
   style="stroke-width:0.5625"><circle
     fill="#ffcc4d"
     cx="18"
     cy="18"
     r="18"
     id="circle2"
     style="stroke-width:0.316406" /><path
     fill="#664500"
     d="M 10.515,23.621 C 10.56,23.8 11.683,28 18,28 c 6.318,0 7.44,-4.2 7.485,-4.379 0.055,-0.217 -0.043,-0.442 -0.237,-0.554 -0.195,-0.111 -0.439,-0.078 -0.6,0.077 C 24.629,23.163 22.694,25 18,25 13.306,25 11.37,23.163 11.352,23.145 11.256,23.05 11.128,23 11,23 c -0.084,0 -0.169,0.021 -0.246,0.064 -0.196,0.112 -0.294,0.339 -0.239,0.557 z"
     id="path4"
     style="stroke-width:0.316406" /><ellipse
     fill="#664500"
     cx="12"
     cy="13.5"
     rx="2.5"
     ry="3.5"
     id="ellipse6"
     style="stroke-width:0.316406" /><ellipse
     fill="#664500"
     cx="24"
     cy="13.5"
     rx="2.5"
     ry="3.5"
     id="ellipse8"
     style="stroke-width:0.316406" /></g></svg>
